<svg id="visual" viewBox="0 0 1920 1080" width="1920" height="1080" xmlns="http://www.w3.org/2000/svg" xmlns:xlink="http://www.w3.org/1999/xlink" version="1.1"><rect x="0" y="0" width="1920" height="1080" fill="#efefef"></rect><defs><linearGradient id="grad1_0" x1="43.8%" y1="0%" x2="100%" y2="100%"><stop offset="14.444444444444446%" stop-color="#eb5722" stop-opacity="1"></stop><stop offset="85.55555555555554%" stop-color="#eb5722" stop-opacity="1"></stop></linearGradient></defs><defs><linearGradient id="grad1_1" x1="43.8%" y1="0%" x2="100%" y2="100%"><stop offset="14.444444444444446%" stop-color="#eb5722" stop-opacity="1"></stop><stop offset="85.55555555555554%" stop-color="#f58055" stop-opacity="1"></stop></linearGradient></defs><defs><linearGradient id="grad1_2" x1="43.8%" y1="0%" x2="100%" y2="100%"><stop offset="14.444444444444446%" stop-color="#f9a687" stop-opacity="1"></stop><stop offset="85.55555555555554%" stop-color="#f58055" stop-opacity="1"></stop></linearGradient></defs><defs><linearGradient id="grad1_3" x1="43.8%" y1="0%" x2="100%" y2="100%"><stop offset="14.444444444444446%" stop-color="#f9a687" stop-opacity="1"></stop><stop offset="85.55555555555554%" stop-color="#f8cbba" stop-opacity="1"></stop></linearGradient></defs><defs><linearGradient id="grad1_4" x1="43.8%" y1="0%" x2="100%" y2="100%"><stop offset="14.444444444444446%" stop-color="#efefef" stop-opacity="1"></stop><stop offset="85.55555555555554%" stop-color="#f8cbba" stop-opacity="1"></stop></linearGradient></defs><defs><linearGradient id="grad2_0" x1="0%" y1="0%" x2="56.3%" y2="100%"><stop offset="14.444444444444446%" stop-color="#eb5722" stop-opacity="1"></stop><stop offset="85.55555555555554%" stop-color="#eb5722" stop-opacity="1"></stop></linearGradient></defs><defs><linearGradient id="grad2_1" x1="0%" y1="0%" x2="56.3%" y2="100%"><stop offset="14.444444444444446%" stop-color="#f58055" stop-opacity="1"></stop><stop offset="85.55555555555554%" stop-color="#eb5722" stop-opacity="1"></stop></linearGradient></defs><defs><linearGradient id="grad2_2" x1="0%" y1="0%" x2="56.3%" y2="100%"><stop offset="14.444444444444446%" stop-color="#f58055" stop-opacity="1"></stop><stop offset="85.55555555555554%" stop-color="#f9a687" stop-opacity="1"></stop></linearGradient></defs><defs><linearGradient id="grad2_3" x1="0%" y1="0%" x2="56.3%" y2="100%"><stop offset="14.444444444444446%" stop-color="#f8cbba" stop-opacity="1"></stop><stop offset="85.55555555555554%" stop-color="#f9a687" stop-opacity="1"></stop></linearGradient></defs><defs><linearGradient id="grad2_4" x1="0%" y1="0%" x2="56.3%" y2="100%"><stop offset="14.444444444444446%" stop-color="#f8cbba" stop-opacity="1"></stop><stop offset="85.55555555555554%" stop-color="#efefef" stop-opacity="1"></stop></linearGradient></defs><g transform="translate(1920, 0)"><path d="M0 756C-44.2 721.7 -88.4 687.3 -134.8 677.7C-181.2 668.1 -229.9 683.3 -284 685.5C-338 687.7 -397.3 676.9 -420 628.6C-442.8 580.3 -429 494.4 -454 454C-479 413.5 -542.8 418.5 -598.7 400C-654.5 381.5 -702.5 339.5 -693.8 287.4C-685.2 235.3 -619.9 173.1 -620.8 123.5C-621.8 73.9 -688.9 37 -756 0L0 0Z" fill="#f5ddd4"></path><path d="M0 604.8C-35.3 577.3 -70.7 549.8 -107.8 542.2C-145 534.5 -184 546.7 -227.2 548.4C-270.4 550.2 -317.8 541.5 -336 502.9C-354.2 464.2 -343.2 395.5 -363.2 363.2C-383.2 330.8 -434.2 334.8 -478.9 320C-523.6 305.2 -562 271.6 -555.1 229.9C-548.1 188.2 -495.9 138.5 -496.7 98.8C-497.4 59.1 -551.1 29.6 -604.8 0L0 0Z" fill="#fab8a0"></path><path d="M0 453.6C-26.5 433 -53 412.4 -80.9 406.6C-108.7 400.9 -138 410 -170.4 411.3C-202.8 412.6 -238.4 406.2 -252 377.2C-265.7 348.2 -257.4 296.6 -272.4 272.4C-287.4 248.1 -325.7 251.1 -359.2 240C-392.7 228.9 -421.5 203.7 -416.3 172.4C-411.1 141.2 -371.9 103.8 -372.5 74.1C-373.1 44.3 -413.3 22.2 -453.6 0L0 0Z" fill="#f8936e"></path><path d="M0 302.4C-17.7 288.7 -35.3 274.9 -53.9 271.1C-72.5 267.3 -92 273.3 -113.6 274.2C-135.2 275.1 -158.9 270.8 -168 251.4C-177.1 232.1 -171.6 197.8 -181.6 181.6C-191.6 165.4 -217.1 167.4 -239.5 160C-261.8 152.6 -281 135.8 -277.5 115C-274.1 94.1 -248 69.2 -248.3 49.4C-248.7 29.6 -275.6 14.8 -302.4 0L0 0Z" fill="#f06c3c"></path><path d="M0 151.2C-8.8 144.3 -17.7 137.5 -27 135.5C-36.2 133.6 -46 136.7 -56.8 137.1C-67.6 137.5 -79.5 135.4 -84 125.7C-88.6 116.1 -85.8 98.9 -90.8 90.8C-95.8 82.7 -108.6 83.7 -119.7 80C-130.9 76.3 -140.5 67.9 -138.8 57.5C-137 47.1 -124 34.6 -124.2 24.7C-124.4 14.8 -137.8 7.4 -151.2 0L0 0Z" fill="#eb5722"></path></g><g transform="translate(0, 1080)"><path d="M0 -756C47.7 -722.8 95.4 -689.7 129.7 -652.2C164.1 -614.8 185 -573 241.5 -583C298 -592.9 390 -654.6 420 -628.6C450 -602.6 417.9 -488.9 434.9 -434.9C451.8 -380.9 517.7 -386.5 538 -359.5C558.2 -332.4 532.8 -272.5 567.3 -235C601.7 -197.4 696.1 -182.2 737.6 -146.7C779 -111.3 767.5 -55.6 756 0L0 0Z" fill="#f5ddd4"></path><path d="M0 -604.8C38.2 -578.3 76.3 -551.7 103.8 -521.8C131.2 -491.8 148 -458.4 193.2 -466.4C238.4 -474.3 312 -523.7 336 -502.9C360 -482.1 334.4 -391.1 347.9 -347.9C361.4 -304.7 414.2 -309.2 430.4 -287.6C446.6 -265.9 426.2 -218 453.8 -188C481.4 -157.9 556.9 -145.7 590 -117.4C623.2 -89 614 -44.5 604.8 0L0 0Z" fill="#fab8a0"></path><path d="M0 -453.6C28.6 -433.7 57.2 -413.8 77.8 -391.3C98.4 -368.9 111 -343.8 144.9 -349.8C178.8 -355.8 234 -392.8 252 -377.2C270 -361.5 250.8 -293.3 260.9 -260.9C271.1 -228.5 310.6 -231.9 322.8 -215.7C334.9 -199.4 319.7 -163.5 340.4 -141C361 -118.4 417.7 -109.3 442.5 -88C467.4 -66.8 460.5 -33.4 453.6 0L0 0Z" fill="#f8936e"></path><path d="M0 -302.4C19.1 -289.1 38.2 -275.9 51.9 -260.9C65.6 -245.9 74 -229.2 96.6 -233.2C119.2 -237.2 156 -261.8 168 -251.4C180 -241 167.2 -195.6 173.9 -173.9C180.7 -152.3 207.1 -154.6 215.2 -143.8C223.3 -132.9 213.1 -109 226.9 -94C240.7 -79 278.4 -72.9 295 -58.7C311.6 -44.5 307 -22.3 302.4 0L0 0Z" fill="#f06c3c"></path><path d="M0 -151.2C9.5 -144.6 19.1 -137.9 25.9 -130.4C32.8 -123 37 -114.6 48.3 -116.6C59.6 -118.6 78 -130.9 84 -125.7C90 -120.5 83.6 -97.8 87 -87C90.4 -76.2 103.5 -77.3 107.6 -71.9C111.6 -66.5 106.6 -54.5 113.5 -47C120.3 -39.5 139.2 -36.4 147.5 -29.3C155.8 -22.3 153.5 -11.1 151.2 0L0 0Z" fill="#eb5722"></path></g></svg>