<svg id="visual" viewBox="0 0 1920 1080" width="1920" height="1080" xmlns="http://www.w3.org/2000/svg" xmlns:xlink="http://www.w3.org/1999/xlink" version="1.1"><rect x="0" y="0" width="1920" height="1080" fill="#efefef"></rect><path d="M0 681L26.7 685.3C53.3 689.7 106.7 698.3 160 692.8C213.3 687.3 266.7 667.7 320 644.8C373.3 622 426.7 596 480 591C533.3 586 586.7 602 640 599.2C693.3 596.3 746.7 574.7 800 585C853.3 595.3 906.7 637.7 960 659.7C1013.3 681.7 1066.7 683.3 1120 672C1173.3 660.7 1226.7 636.3 1280 609.8C1333.3 583.3 1386.7 554.7 1440 546.7C1493.3 538.7 1546.7 551.3 1600 562.3C1653.3 573.3 1706.7 582.7 1760 591.2C1813.3 599.7 1866.7 607.3 1893.3 611.2L1920 615L1920 1081L1893.3 1081C1866.7 1081 1813.3 1081 1760 1081C1706.7 1081 1653.3 1081 1600 1081C1546.7 1081 1493.3 1081 1440 1081C1386.7 1081 1333.3 1081 1280 1081C1226.7 1081 1173.3 1081 1120 1081C1066.7 1081 1013.3 1081 960 1081C906.7 1081 853.3 1081 800 1081C746.7 1081 693.3 1081 640 1081C586.7 1081 533.3 1081 480 1081C426.7 1081 373.3 1081 320 1081C266.7 1081 213.3 1081 160 1081C106.7 1081 53.3 1081 26.7 1081L0 1081Z" fill="#efefef"></path><path d="M0 635L26.7 643.8C53.3 652.7 106.7 670.3 160 682.2C213.3 694 266.7 700 320 708.5C373.3 717 426.7 728 480 721.7C533.3 715.3 586.7 691.7 640 669.2C693.3 646.7 746.7 625.3 800 612.7C853.3 600 906.7 596 960 602.5C1013.3 609 1066.7 626 1120 626.8C1173.3 627.7 1226.7 612.3 1280 629.3C1333.3 646.3 1386.7 695.7 1440 692.2C1493.3 688.7 1546.7 632.3 1600 631.2C1653.3 630 1706.7 684 1760 709.2C1813.3 734.3 1866.7 730.7 1893.3 728.8L1920 727L1920 1081L1893.3 1081C1866.7 1081 1813.3 1081 1760 1081C1706.7 1081 1653.3 1081 1600 1081C1546.7 1081 1493.3 1081 1440 1081C1386.7 1081 1333.3 1081 1280 1081C1226.7 1081 1173.3 1081 1120 1081C1066.7 1081 1013.3 1081 960 1081C906.7 1081 853.3 1081 800 1081C746.7 1081 693.3 1081 640 1081C586.7 1081 533.3 1081 480 1081C426.7 1081 373.3 1081 320 1081C266.7 1081 213.3 1081 160 1081C106.7 1081 53.3 1081 26.7 1081L0 1081Z" fill="#f4e0da"></path><path d="M0 736L26.7 729.7C53.3 723.3 106.7 710.7 160 707.8C213.3 705 266.7 712 320 706.8C373.3 701.7 426.7 684.3 480 688.2C533.3 692 586.7 717 640 712.7C693.3 708.3 746.7 674.7 800 655.2C853.3 635.7 906.7 630.3 960 653.2C1013.3 676 1066.7 727 1120 729.2C1173.3 731.3 1226.7 684.7 1280 659.5C1333.3 634.3 1386.7 630.7 1440 636.3C1493.3 642 1546.7 657 1600 679C1653.3 701 1706.7 730 1760 731.5C1813.3 733 1866.7 707 1893.3 694L1920 681L1920 1081L1893.3 1081C1866.7 1081 1813.3 1081 1760 1081C1706.7 1081 1653.3 1081 1600 1081C1546.7 1081 1493.3 1081 1440 1081C1386.7 1081 1333.3 1081 1280 1081C1226.7 1081 1173.3 1081 1120 1081C1066.7 1081 1013.3 1081 960 1081C906.7 1081 853.3 1081 800 1081C746.7 1081 693.3 1081 640 1081C586.7 1081 533.3 1081 480 1081C426.7 1081 373.3 1081 320 1081C266.7 1081 213.3 1081 160 1081C106.7 1081 53.3 1081 26.7 1081L0 1081Z" fill="#f7d2c4"></path><path d="M0 672L26.7 674.8C53.3 677.7 106.7 683.3 160 703.2C213.3 723 266.7 757 320 768.2C373.3 779.3 426.7 767.7 480 749.3C533.3 731 586.7 706 640 713.5C693.3 721 746.7 761 800 764C853.3 767 906.7 733 960 726C1013.3 719 1066.7 739 1120 756.8C1173.3 774.7 1226.7 790.3 1280 776.3C1333.3 762.3 1386.7 718.7 1440 706.3C1493.3 694 1546.7 713 1600 730.2C1653.3 747.3 1706.7 762.7 1760 762.3C1813.3 762 1866.7 746 1893.3 738L1920 730L1920 1081L1893.3 1081C1866.7 1081 1813.3 1081 1760 1081C1706.7 1081 1653.3 1081 1600 1081C1546.7 1081 1493.3 1081 1440 1081C1386.7 1081 1333.3 1081 1280 1081C1226.7 1081 1173.3 1081 1120 1081C1066.7 1081 1013.3 1081 960 1081C906.7 1081 853.3 1081 800 1081C746.7 1081 693.3 1081 640 1081C586.7 1081 533.3 1081 480 1081C426.7 1081 373.3 1081 320 1081C266.7 1081 213.3 1081 160 1081C106.7 1081 53.3 1081 26.7 1081L0 1081Z" fill="#f9c3b0"></path><path d="M0 731L26.7 734.7C53.3 738.3 106.7 745.7 160 763.5C213.3 781.3 266.7 809.7 320 805.5C373.3 801.3 426.7 764.7 480 748.3C533.3 732 586.7 736 640 747.3C693.3 758.7 746.7 777.3 800 779C853.3 780.7 906.7 765.3 960 763C1013.3 760.7 1066.7 771.3 1120 778.3C1173.3 785.3 1226.7 788.7 1280 799.8C1333.3 811 1386.7 830 1440 817.3C1493.3 804.7 1546.7 760.3 1600 748.7C1653.3 737 1706.7 758 1760 764.8C1813.3 771.7 1866.7 764.3 1893.3 760.7L1920 757L1920 1081L1893.3 1081C1866.7 1081 1813.3 1081 1760 1081C1706.7 1081 1653.3 1081 1600 1081C1546.7 1081 1493.3 1081 1440 1081C1386.7 1081 1333.3 1081 1280 1081C1226.7 1081 1173.3 1081 1120 1081C1066.7 1081 1013.3 1081 960 1081C906.7 1081 853.3 1081 800 1081C746.7 1081 693.3 1081 640 1081C586.7 1081 533.3 1081 480 1081C426.7 1081 373.3 1081 320 1081C266.7 1081 213.3 1081 160 1081C106.7 1081 53.3 1081 26.7 1081L0 1081Z" fill="#f9b59b"></path><path d="M0 870L26.7 862C53.3 854 106.7 838 160 837.7C213.3 837.3 266.7 852.7 320 859.2C373.3 865.7 426.7 863.3 480 854.7C533.3 846 586.7 831 640 833.2C693.3 835.3 746.7 854.7 800 860C853.3 865.3 906.7 856.7 960 843.3C1013.3 830 1066.7 812 1120 801.8C1173.3 791.7 1226.7 789.3 1280 801C1333.3 812.7 1386.7 838.3 1440 839.2C1493.3 840 1546.7 816 1600 809.7C1653.3 803.3 1706.7 814.7 1760 814.8C1813.3 815 1866.7 804 1893.3 798.5L1920 793L1920 1081L1893.3 1081C1866.7 1081 1813.3 1081 1760 1081C1706.7 1081 1653.3 1081 1600 1081C1546.7 1081 1493.3 1081 1440 1081C1386.7 1081 1333.3 1081 1280 1081C1226.7 1081 1173.3 1081 1120 1081C1066.7 1081 1013.3 1081 960 1081C906.7 1081 853.3 1081 800 1081C746.7 1081 693.3 1081 640 1081C586.7 1081 533.3 1081 480 1081C426.7 1081 373.3 1081 320 1081C266.7 1081 213.3 1081 160 1081C106.7 1081 53.3 1081 26.7 1081L0 1081Z" fill="#f9a687"></path><path d="M0 826L26.7 825.2C53.3 824.3 106.7 822.7 160 824.2C213.3 825.7 266.7 830.3 320 840C373.3 849.7 426.7 864.3 480 872.5C533.3 880.7 586.7 882.3 640 882.7C693.3 883 746.7 882 800 881.7C853.3 881.3 906.7 881.7 960 869.8C1013.3 858 1066.7 834 1120 827.5C1173.3 821 1226.7 832 1280 837.5C1333.3 843 1386.7 843 1440 844.2C1493.3 845.3 1546.7 847.7 1600 844.8C1653.3 842 1706.7 834 1760 828C1813.3 822 1866.7 818 1893.3 816L1920 814L1920 1081L1893.3 1081C1866.7 1081 1813.3 1081 1760 1081C1706.7 1081 1653.3 1081 1600 1081C1546.7 1081 1493.3 1081 1440 1081C1386.7 1081 1333.3 1081 1280 1081C1226.7 1081 1173.3 1081 1120 1081C1066.7 1081 1013.3 1081 960 1081C906.7 1081 853.3 1081 800 1081C746.7 1081 693.3 1081 640 1081C586.7 1081 533.3 1081 480 1081C426.7 1081 373.3 1081 320 1081C266.7 1081 213.3 1081 160 1081C106.7 1081 53.3 1081 26.7 1081L0 1081Z" fill="#f89773"></path><path d="M0 860L26.7 872.8C53.3 885.7 106.7 911.3 160 915.8C213.3 920.3 266.7 903.7 320 897C373.3 890.3 426.7 893.7 480 898.2C533.3 902.7 586.7 908.3 640 901.7C693.3 895 746.7 876 800 878.3C853.3 880.7 906.7 904.3 960 917C1013.3 929.7 1066.7 931.3 1120 930.7C1173.3 930 1226.7 927 1280 926.8C1333.3 926.7 1386.7 929.3 1440 924.5C1493.3 919.7 1546.7 907.3 1600 905C1653.3 902.7 1706.7 910.3 1760 911.5C1813.3 912.7 1866.7 907.3 1893.3 904.7L1920 902L1920 1081L1893.3 1081C1866.7 1081 1813.3 1081 1760 1081C1706.7 1081 1653.3 1081 1600 1081C1546.7 1081 1493.3 1081 1440 1081C1386.7 1081 1333.3 1081 1280 1081C1226.7 1081 1173.3 1081 1120 1081C1066.7 1081 1013.3 1081 960 1081C906.7 1081 853.3 1081 800 1081C746.7 1081 693.3 1081 640 1081C586.7 1081 533.3 1081 480 1081C426.7 1081 373.3 1081 320 1081C266.7 1081 213.3 1081 160 1081C106.7 1081 53.3 1081 26.7 1081L0 1081Z" fill="#f6885f"></path><path d="M0 904L26.7 915C53.3 926 106.7 948 160 961C213.3 974 266.7 978 320 976.8C373.3 975.7 426.7 969.3 480 959.2C533.3 949 586.7 935 640 938C693.3 941 746.7 961 800 967.3C853.3 973.7 906.7 966.3 960 954.8C1013.3 943.3 1066.7 927.7 1120 919.7C1173.3 911.7 1226.7 911.3 1280 917C1333.3 922.7 1386.7 934.3 1440 945.7C1493.3 957 1546.7 968 1600 972.8C1653.3 977.7 1706.7 976.3 1760 975C1813.3 973.7 1866.7 972.3 1893.3 971.7L1920 971L1920 1081L1893.3 1081C1866.7 1081 1813.3 1081 1760 1081C1706.7 1081 1653.3 1081 1600 1081C1546.7 1081 1493.3 1081 1440 1081C1386.7 1081 1333.3 1081 1280 1081C1226.7 1081 1173.3 1081 1120 1081C1066.7 1081 1013.3 1081 960 1081C906.7 1081 853.3 1081 800 1081C746.7 1081 693.3 1081 640 1081C586.7 1081 533.3 1081 480 1081C426.7 1081 373.3 1081 320 1081C266.7 1081 213.3 1081 160 1081C106.7 1081 53.3 1081 26.7 1081L0 1081Z" fill="#f3784b"></path><path d="M0 975L26.7 980.8C53.3 986.7 106.7 998.3 160 995.5C213.3 992.7 266.7 975.3 320 972.7C373.3 970 426.7 982 480 985.8C533.3 989.7 586.7 985.3 640 980.5C693.3 975.7 746.7 970.3 800 972.7C853.3 975 906.7 985 960 986.5C1013.3 988 1066.7 981 1120 981C1173.3 981 1226.7 988 1280 984.2C1333.3 980.3 1386.7 965.7 1440 962.2C1493.3 958.7 1546.7 966.3 1600 970.5C1653.3 974.7 1706.7 975.3 1760 980.7C1813.3 986 1866.7 996 1893.3 1001L1920 1006L1920 1081L1893.3 1081C1866.7 1081 1813.3 1081 1760 1081C1706.7 1081 1653.3 1081 1600 1081C1546.7 1081 1493.3 1081 1440 1081C1386.7 1081 1333.3 1081 1280 1081C1226.7 1081 1173.3 1081 1120 1081C1066.7 1081 1013.3 1081 960 1081C906.7 1081 853.3 1081 800 1081C746.7 1081 693.3 1081 640 1081C586.7 1081 533.3 1081 480 1081C426.7 1081 373.3 1081 320 1081C266.7 1081 213.3 1081 160 1081C106.7 1081 53.3 1081 26.7 1081L0 1081Z" fill="#ef6837"></path><path d="M0 1047L26.7 1039C53.3 1031 106.7 1015 160 1010C213.3 1005 266.7 1011 320 1014.8C373.3 1018.7 426.7 1020.3 480 1021C533.3 1021.7 586.7 1021.3 640 1019C693.3 1016.7 746.7 1012.3 800 1017.2C853.3 1022 906.7 1036 960 1038C1013.3 1040 1066.7 1030 1120 1021.5C1173.3 1013 1226.7 1006 1280 1007C1333.3 1008 1386.7 1017 1440 1019.8C1493.3 1022.7 1546.7 1019.3 1600 1021.3C1653.3 1023.3 1706.7 1030.7 1760 1029C1813.3 1027.3 1866.7 1016.7 1893.3 1011.3L1920 1006L1920 1081L1893.3 1081C1866.7 1081 1813.3 1081 1760 1081C1706.7 1081 1653.3 1081 1600 1081C1546.7 1081 1493.3 1081 1440 1081C1386.7 1081 1333.3 1081 1280 1081C1226.7 1081 1173.3 1081 1120 1081C1066.7 1081 1013.3 1081 960 1081C906.7 1081 853.3 1081 800 1081C746.7 1081 693.3 1081 640 1081C586.7 1081 533.3 1081 480 1081C426.7 1081 373.3 1081 320 1081C266.7 1081 213.3 1081 160 1081C106.7 1081 53.3 1081 26.7 1081L0 1081Z" fill="#eb5722"></path></svg>